<?xml version="1.0" encoding="utf-8"?>
<!-- Generator: Adobe Illustrator 21.1.0, SVG Export Plug-In . SVG Version: 6.00 Build 0)  -->
<svg version="1.1"
	 id="Layer_1" inkscape:version="0.91 r13725" sodipodi:docname="audio.svg" xmlns:cc="http://creativecommons.org/ns#" xmlns:dc="http://purl.org/dc/elements/1.1/" xmlns:inkscape="http://www.inkscape.org/namespaces/inkscape" xmlns:rdf="http://www.w3.org/1999/02/22-rdf-syntax-ns#" xmlns:sodipodi="http://sodipodi.sourceforge.net/DTD/sodipodi-0.dtd" xmlns:svg="http://www.w3.org/2000/svg"
	 xmlns="http://www.w3.org/2000/svg" xmlns:xlink="http://www.w3.org/1999/xlink" x="0px" y="0px" viewBox="0 0 64 64"
	 style="enable-background:new 0 0 64 64;" xml:space="preserve">
<style type="text/css">
	.st0{opacity:0;}
	.st1{fill:#231F20;}
	.st2{fill:none;stroke:#6B8FC9;stroke-width:3.7466;stroke-linecap:round;stroke-miterlimit:10;}
	.st3{fill:none;stroke:#2869A9;stroke-width:3.7466;stroke-linecap:round;stroke-miterlimit:10;}
	.st4{fill:none;stroke:#083E72;stroke-width:3.7466;stroke-linecap:round;stroke-miterlimit:10;}
</style>
<sodipodi:namedview  bordercolor="#666666" borderopacity="1" gridtolerance="10" guidetolerance="10" id="namedview29" inkscape:current-layer="Layer_1" inkscape:cx="-49.084746" inkscape:cy="32" inkscape:pageopacity="0" inkscape:pageshadow="2" inkscape:window-height="906" inkscape:window-maximized="0" inkscape:window-width="1342" inkscape:window-x="10" inkscape:window-y="34" inkscape:zoom="3.6875" objecttolerance="10" pagecolor="#ffffff" showgrid="false">
	</sodipodi:namedview>
<g id="g5" transform="matrix(1.2620453,0,0,1.2358143,-8.5865549,-8.0530582)" class="st0">
	<path id="path7" inkscape:connector-curvature="0" class="st1" d="M33.9,12.2C33.6,12.1,33.3,12,33,12c-0.4,0-0.9,0.1-1.2,0.4
		L17.3,24H12c-1.1,0-2,0.9-2,2v16c0,1.1,0.9,2,2,2h5.3l14.5,11.6c0.4,0.3,0.8,0.4,1.2,0.4c0.3,0,0.6-0.1,0.9-0.2
		c0.7-0.3,1.1-1,1.1-1.8V14C35,13.2,34.6,12.5,33.9,12.2z"/>
	<path id="path9" inkscape:connector-curvature="0" class="st1" d="M38,36.8c-0.7,0.5-0.8,1.4-0.3,2.1c0.3,0.4,0.8,0.6,1.2,0.6
		c0.3,0,0.6-0.1,0.9-0.3c1.7-1.2,2.7-3.2,2.7-5.3c0-2.1-1-4-2.7-5.3c-0.7-0.5-1.6-0.3-2.1,0.3c-0.5,0.7-0.3,1.6,0.3,2.1
		c0.9,0.7,1.5,1.7,1.5,2.8C39.5,35.1,39,36.2,38,36.8z"/>
	<path id="path11" inkscape:connector-curvature="0" class="st1" d="M38.5,43.2c-0.8,0.2-1.3,1-1,1.8c0.2,0.7,0.8,1.1,1.4,1.1
		c0.1,0,0.3,0,0.4-0.1c5.4-1.5,9.2-6.4,9.2-12s-3.8-10.6-9.2-12c-0.8-0.2-1.6,0.2-1.8,1c-0.2,0.8,0.2,1.6,1,1.8c4.1,1.1,7,4.9,7,9.2
		S42.6,42,38.5,43.2z"/>
	<path id="path13" inkscape:connector-curvature="0" class="st1" d="M39.2,15.8c-0.8-0.1-1.6,0.4-1.7,1.2c-0.1,0.8,0.4,1.6,1.2,1.7
		C46.1,20,51.5,26.4,51.5,34s-5.4,14-12.8,15.3c-0.8,0.1-1.4,0.9-1.2,1.7c0.1,0.7,0.8,1.2,1.5,1.2c0.1,0,0.2,0,0.3,0
		C48.1,50.7,54.5,43,54.5,34S48.1,17.3,39.2,15.8z"/>
</g>
<path id="path15" inkscape:connector-curvature="0" class="st1" d="M30.5,41.4c0,1.4-1.1,2.5-2.5,2.5H6.6c-1.4,0-2.5-1.1-2.5-2.5
	V21.6c0-1.4,1.1-2.5,2.5-2.5H28c1.4,0,2.5,1.1,2.5,2.5V41.4z"/>
<g id="g17" transform="matrix(1.2620453,0,0,1.2358143,-8.5865549,-8.0530582)">
	<path id="path19" inkscape:connector-curvature="0" class="st1" d="M33,53c-0.2,0-0.4-0.1-0.6-0.2l-15-12C17.1,40.6,17,40.3,17,40
		V24c0-0.3,0.1-0.6,0.4-0.8l15-12c0.2-0.1,0.4-0.2,0.6-0.2c0.1,0,0.3,0,0.4,0.1c0.3,0.2,0.6,0.5,0.6,0.9v40c0,0.4-0.2,0.7-0.6,0.9
		C33.3,53,33.1,53,33,53z"/>
	<path id="path21" inkscape:connector-curvature="0" class="st1" d="M33,12v40L18,40V24L33,12 M33,10c-0.4,0-0.9,0.1-1.2,0.4l-15,12
		c-0.5,0.4-0.8,1-0.8,1.6v16c0,0.6,0.3,1.2,0.8,1.6l15,12c0.4,0.3,0.8,0.4,1.2,0.4c0.3,0,0.6-0.1,0.9-0.2c0.7-0.3,1.1-1,1.1-1.8V12
		c0-0.8-0.4-1.5-1.1-1.8C33.6,10.1,33.3,10,33,10L33,10z"/>
</g>
<path id="path23" inkscape:connector-curvature="0" class="st2" d="M40.5,36.5c1.6-1.1,2.6-2.9,2.6-5s-1-3.9-2.6-5"/>
<path id="path25" inkscape:connector-curvature="0" class="st3" d="M40.5,44.6c5.9-1.6,10.2-6.8,10.2-13.1S46.4,20,40.5,18.4"/>
<path id="path27" inkscape:connector-curvature="0" class="st4" d="M40.5,52.2c10.1-1.7,17.8-10.3,17.8-20.7s-7.7-19-17.8-20.7"/>
</svg>
