<svg id="Ebene_1" data-name="Ebene 1" xmlns="http://www.w3.org/2000/svg" viewBox="0 0 151.23 73.71"><defs><style>.cls-1{fill:#231f20;}.cls-2{fill:#5091cd;}.cls-3{fill:#fff;}</style></defs><title>logo_subline-rgb</title><path class="cls-1" d="M125.09,57.37c0,1.21-.57,1.91-3.08,1.91s-3.17-.77-3.17-2v-.2a2.63,2.63,0,0,1,1.08-2.24l2.49.64c2,.51,2.68.86,2.68,1.71Zm-.18-9c0,1.32-.59,2.24-3,2.24-2.53,0-3-1.28-3-2.24v-.18c0-1.23.5-2.35,3-2.35s3,1,3,2.35Zm2.35-3v-.57a.51.51,0,0,0-.51-.48h-4.82c-3.78,0-4.88,1.93-4.88,3.89v.18a3.23,3.23,0,0,0,1,2.55,1.81,1.81,0,0,0-.9,1.58v0a1.81,1.81,0,0,0,1,1.72l.15.07A3.56,3.56,0,0,0,117,57.08v.2c0,2.16,1.58,3.5,5.06,3.5s5-1.3,5-3.41v-.18c0-2.07-2.07-2.68-4.22-3.23l-3.28-.84c-.5-.13-.68-.33-.68-.7a.8.8,0,0,1,.55-.75,6.32,6.32,0,0,0,2.55.44c3.39,0,4.88-1.34,4.88-3.76v-.18a3.09,3.09,0,0,0-.75-2.26l.79-.15c.24,0,.4-.13.4-.42m-11.13.09v-.9c0-.26-.15-.4-.46-.4a5.26,5.26,0,0,0-3.1,1.06v-.46a.42.42,0,0,0-.42-.44h-1a.42.42,0,0,0-.42.44V55.94a.44.44,0,0,0,.42.44h1.08a.46.46,0,0,0,.44-.44V46.72a5.63,5.63,0,0,1,3-.92c.31,0,.46-.13.46-.37m-9.52,5.74c0,2.27-.92,3.67-3,3.67s-2.95-1.43-2.95-3.67V49.5c0-2.26.9-3.67,2.95-3.67s3,1.43,3,3.67Zm1.93,0V49.5c0-3.23-1.67-5.37-4.9-5.37s-4.88,2.13-4.88,5.37v1.67c0,3.23,1.65,5.37,4.88,5.37s4.9-2.13,4.9-5.37M96.7,55.92v-2a.42.42,0,0,0-.42-.42H95.22a.42.42,0,0,0-.42.42v2a.44.44,0,0,0,.42.44h1.05a.42.42,0,0,0,.42-.44"/><path class="cls-2" d="M92.34,55.94V48.7c0-2.92-1.19-4.57-3.83-4.57a6.62,6.62,0,0,0-3.5,1v-.42a.42.42,0,0,0-.42-.44H83.5a.42.42,0,0,0-.42.44V55.94a.44.44,0,0,0,.42.44h1.08a.46.46,0,0,0,.44-.44V46.66a7,7,0,0,1,3-.86c1.67,0,2.42.68,2.42,2.9v7.24a.44.44,0,0,0,.44.44H91.9a.44.44,0,0,0,.44-.44M78.93,49.47H73.1v-.2c0-2.37,1.06-3.45,2.95-3.45s2.88,1,2.88,3.45Zm2,1V49.28c0-3.12-1.63-5.15-4.84-5.15s-4.88,2-4.88,5.15v2c0,4.09,2.46,5.28,5,5.28a19.91,19.91,0,0,0,3.94-.37c.35-.07.44-.22.44-.51V54.9a.31.31,0,0,0-.35-.31h-.11a30.44,30.44,0,0,1-3.91.24c-2,0-3.06-1-3.06-3.58v-.31h7.37c.26,0,.42-.2.42-.48M69,55.94V48.7c0-3.23-1.63-4.57-4-4.57a9.18,9.18,0,0,0-3.36.68V40.28a.42.42,0,0,0-.42-.44h-1.1a.42.42,0,0,0-.42.44V55.94a.44.44,0,0,0,.42.44h1.08a.46.46,0,0,0,.44-.44v-9.5a8.53,8.53,0,0,1,3-.62c1.43,0,2.35.68,2.35,2.88v7.24a.44.44,0,0,0,.44.44h1.06a.44.44,0,0,0,.44-.44m-11.28-.13V55a.34.34,0,0,0-.37-.33h-.09a21.73,21.73,0,0,1-2.73.15c-1.78,0-2.75-1.19-2.75-3.65V49.47c0-2.49,1-3.65,2.75-3.65a21.36,21.36,0,0,1,2.73.15h.09a.34.34,0,0,0,.37-.33v-.79c0-.31-.09-.42-.44-.48a16.16,16.16,0,0,0-2.75-.24c-3,0-4.68,2.11-4.68,5.34v1.71c0,3.23,1.69,5.34,4.68,5.34a16,16,0,0,0,2.75-.24c.35-.07.44-.2.44-.48m-12-1.74a6,6,0,0,1-3,.88c-1.27,0-2-.42-2-2v-.26c0-1.56.7-2.16,3.37-2.16h1.63Zm1.94,1.87V48.26c0-2.6-1.23-4.13-4.29-4.13a19,19,0,0,0-3.41.29c-.31,0-.46.18-.46.42v.77c0,.29.2.35.4.35H40a32,32,0,0,1,3.36-.18c1.71,0,2.35.64,2.35,2.49v.88H44.14c-3.91,0-5.3,1.19-5.3,3.56V53c0,2.75,1.72,3.56,3.59,3.56a6.69,6.69,0,0,0,3.39-1.08v.48a.44.44,0,0,0,.44.44h1a.44.44,0,0,0,.44-.44M34.79,54.07a6,6,0,0,1-3,.88c-1.28,0-2-.42-2-2v-.26c0-1.56.7-2.16,3.36-2.16h1.63Zm1.94,1.87V48.26c0-2.6-1.23-4.13-4.29-4.13a19,19,0,0,0-3.41.29c-.31,0-.46.18-.46.42v.77c0,.29.2.35.4.35h.11a32,32,0,0,1,3.36-.18c1.72,0,2.35.64,2.35,2.49v.88H33.17c-3.91,0-5.3,1.19-5.3,3.56V53c0,2.75,1.71,3.56,3.58,3.56a6.69,6.69,0,0,0,3.39-1.08v.48a.44.44,0,0,0,.44.44h1a.44.44,0,0,0,.44-.44"/><path class="cls-1" d="M27.25,45.43v-.9c0-.26-.15-.4-.46-.4a5.26,5.26,0,0,0-3.1,1.06v-.46a.42.42,0,0,0-.42-.44h-1a.42.42,0,0,0-.42.44V55.94a.44.44,0,0,0,.42.44h1.08a.46.46,0,0,0,.44-.44V46.72a5.63,5.63,0,0,1,3-.92c.31,0,.46-.13.46-.37m-9.52,5.72c0,2.35-.7,3.76-2.86,3.76a17.18,17.18,0,0,1-2.57-.22V46a16.22,16.22,0,0,1,2.57-.22c2.18,0,2.86,1.5,2.86,3.81Zm1.94,0V49.56c0-3.3-1.52-5.43-4.79-5.43a18.17,18.17,0,0,0-4,.51c-.4.09-.46.22-.46.5V60.27a.4.4,0,0,0,.4.42h1.12a.42.42,0,0,0,.42-.42v-4a16.22,16.22,0,0,0,2.57.24c3.21,0,4.79-1.94,4.79-5.39M8.21,53.34c0-1.3-.59-2.24-2.42-3.32l-2.18-1.3c-1-.59-1.52-1-1.52-1.67,0-1.12.81-1.28,2-1.28s2.64.11,3.41.18h.07A.34.34,0,0,0,8,45.58v-.72c0-.24-.13-.4-.42-.44a20.6,20.6,0,0,0-3.43-.29c-2.27,0-4,.64-4,2.93,0,1.38.9,2.33,2.24,3.14l2.22,1.32c1.25.75,1.65,1.16,1.65,1.83,0,1.19-.75,1.56-2.18,1.56-.79,0-2.4-.11-3.45-.24H.55a.36.36,0,0,0-.4.33v.77c0,.24.18.37.46.44a17,17,0,0,0,3.48.33c2.46,0,4.11-.95,4.11-3.19"/><path class="cls-1" d="M127.38,71V66.24l-.12-.13h-.36l-.12.13v4l-2.11-4c-.06-.1-.09-.14-.28-.14H124a.19.19,0,0,0-.2.19v4.82l.12.08h.36l.12-.13V67l0,0,2.12,4a.23.23,0,0,0,.22.11h.42a.2.2,0,0,0,.2-.2m-6.15.12v-.35l-.08-.08h-1.32c-.73,0-.84-.19-.84-.71V68.83h2.1l.14-.14v-.26l-.14-.14H119v-1c0-.52.12-.71.84-.71h1.32l.08-.08V66.2l-.07-.1c-.29,0-.93,0-1.34,0-1,0-1.46.36-1.46,1.28V70c0,.91.5,1.28,1.46,1.28.4,0,1.08,0,1.34,0Zm-5.58-.06V66.25l-.14-.14h-.35l-.14.14v2h-2.35v-2l-.14-.14h-.35l-.14.14v4.82l.14.14h.35l.14-.14V68.79H115v2.28l.14.14h.35Zm-6,0v-.28l-.11-.11h0c-.25,0-.74.05-1.13.05-.67,0-1.19-.4-1.19-1.56v-1c0-1.17.52-1.56,1.19-1.56.4,0,.91,0,1.15.06h0l.08-.07v-.35l-.11-.09a7.4,7.4,0,0,0-1.15-.11c-.84,0-1.81.44-1.81,2.12v1c0,1.67,1,2.12,1.81,2.12a5.49,5.49,0,0,0,1.14-.09Zm-6.4-2h-1.52l.62-2.26.14-.12.13.12Zm1.21,2.11v0l-1.27-4.47a.66.66,0,0,0-.69-.51.67.67,0,0,0-.7.52L100.51,71v0l.12.11h.4l.12-.1.44-1.58h1.78l.45,1.58.12.1h.4ZM97.25,69H95.73l.62-2.26.14-.12.13.12Zm1.21,2.11v0l-1.27-4.47a.67.67,0,0,0-.69-.51.68.68,0,0,0-.7.52L94.52,71v0l.12.11H95l.12-.1.44-1.58h1.78l.45,1.58.12.1h.4Zm-9.5,0v-.35l-.08-.08H87.56c-.73,0-.84-.19-.84-.71V68.83h2.11l.14-.14v-.26l-.14-.14H86.71v-1c0-.52.12-.71.84-.71h1.32l.08-.08V66.2l-.07-.1c-.29,0-.93,0-1.34,0-1,0-1.46.36-1.46,1.28V70c0,.91.5,1.28,1.46,1.28.4,0,1.08,0,1.34,0Zm-5.65-.06V66.24l-.12-.13h-.38l-.12.13v4.83l.12.14h.38Zm-3.4,0V66.31a.2.2,0,0,0-.2-.2h-.44c-.12,0-.18,0-.22.12l-1.13,2.35-.08.08-.08-.08-1.13-2.35c0-.09-.1-.12-.22-.12H76a.2.2,0,0,0-.2.2v4.76l.14.14h.33l.14-.14V67h0l1,2a.29.29,0,0,0,.31.2H78a.29.29,0,0,0,.31-.2l1-2h0v4.09l.14.14h.34Zm-6.71.06v-.35l-.08-.08H71.79c-.73,0-.84-.19-.84-.71V68.83h2.11l.14-.14v-.26l-.14-.14H71v-1c0-.52.12-.71.84-.71h1.32l.08-.08V66.2l-.07-.1c-.29,0-.93,0-1.34,0-1,0-1.46.36-1.46,1.28V70c0,.91.5,1.28,1.46,1.28.4,0,1.08,0,1.34,0Zm-6.06-2c0,1.23-.63,1.6-1.45,1.6h-.76V66.62l.76,0c.82,0,1.45.36,1.45,1.6Zm.62,0V68.2a1.88,1.88,0,0,0-2.08-2.13,9.67,9.67,0,0,0-1.25.07.16.16,0,0,0-.14.17V71a.16.16,0,0,0,.14.17,9.63,9.63,0,0,0,1.25.07,1.89,1.89,0,0,0,2.08-2.13M60.69,69H59.18l.62-2.26.14-.12.13.12Zm1.21,2.11v0l-1.27-4.47a.66.66,0,0,0-.69-.51.67.67,0,0,0-.7.52L58,71v0l.12.11h.4l.12-.1L59,69.52h1.78l.45,1.58.12.1h.4Zm-6.08,0,0-.08-2.06-2.47,2.06-2.33,0-.07-.1-.07h-.49l-.14.06-2,2.28V66.24L53,66.11h-.36l-.13.13v4.83l.12.14H53l.12-.14V68.79l1.93,2.35.15.07h.53ZM48.9,69H47.39L48,66.73l.14-.12.13.12Zm1.21,2.11v0l-1.27-4.47a.66.66,0,0,0-.69-.51.68.68,0,0,0-.7.52L46.18,71v0l.12.11h.4l.12-.1.44-1.58H49l.45,1.58.12.1H50ZM43.79,71V66.24l-.12-.13h-.36l-.12.13v4l-2.11-4c-.05-.1-.09-.14-.28-.14H40.4a.19.19,0,0,0-.2.19v4.82l.12.08h.36l.12-.13V67l0,0,2.12,4a.23.23,0,0,0,.22.11h.42a.2.2,0,0,0,.2-.2m-6.15.12v-.35l-.07-.08H36.24c-.73,0-.84-.19-.84-.71V68.83h2.11l.14-.14v-.26l-.14-.14H35.4v-1c0-.52.12-.71.84-.71h1.32l.07-.08V66.2l-.07-.1c-.29,0-.93,0-1.34,0-1,0-1.46.36-1.46,1.28V70c0,.91.5,1.28,1.46,1.28.4,0,1.08,0,1.34,0Zm-5.58-.06V66.25l-.14-.14h-.35l-.14.14v2H29.09v-2L29,66.11h-.35l-.14.14v4.82l.14.14H29l.14-.14V68.79h2.35v2.28l.14.14h.35Zm-6,0v-.28l-.11-.11h0c-.25,0-.74.05-1.13.05-.67,0-1.19-.4-1.19-1.56v-1c0-1.17.52-1.56,1.19-1.56.4,0,.9,0,1.15.06h0l.08-.07v-.35l-.11-.09a7.39,7.39,0,0,0-1.15-.11c-.84,0-1.81.44-1.81,2.12v1c0,1.67,1,2.12,1.81,2.12a5.48,5.48,0,0,0,1.14-.09Zm-6.4-2H18.13l.62-2.26.14-.12.13.12Zm1.21,2.11v0l-1.27-4.47a.67.67,0,0,0-.69-.51.68.68,0,0,0-.7.52L16.92,71v0l.12.11h.4l.12-.1L18,69.52h1.78l.45,1.58.12.1h.4ZM14,67.58c0,.74-.46,1-1.3,1h-.75V66.64c.16,0,.54,0,.75,0,.86,0,1.3.23,1.3.91Zm.81,3.53,0-.06L13.54,69a1.35,1.35,0,0,0,1.08-1.38v0c0-1.11-.84-1.47-1.92-1.47-.4,0-.91,0-1.21.06-.12,0-.17.05-.17.15v4.8l.12.14h.37l.12-.14v-2l.75,0h.18l1.23,2,.18.09h.44Zm-6.6-3.48c0,.71-.36,1-1.3,1l-.69,0v-2l.69,0c.89,0,1.3.27,1.3,1Zm.62,0v-.09c0-1.1-.81-1.49-1.92-1.49a11,11,0,0,0-1.14.06.17.17,0,0,0-.16.17v4.78l.12.14H6.1l.12-.14V69.14c.18,0,.47,0,.69,0,1.11,0,1.92-.39,1.92-1.54M3.09,69.88c0-.55-.28-.93-1.08-1.4l-.63-.38c-.52-.32-.75-.51-.75-.83,0-.5.3-.65,1-.65.4,0,.88,0,1.18,0h0l.12-.11v-.29l-.12-.12a9.33,9.33,0,0,0-1.19-.08c-1,0-1.64.38-1.64,1.21,0,.55.32.9.95,1.28l.67.41c.63.38.82.58.82.92s-.22.81-1,.81c-.32,0-.82,0-1.13,0h0l-.12.11V71c0,.07,0,.1.13.12a6.86,6.86,0,0,0,1.14.1c1.35,0,1.69-.71,1.69-1.37"/><path class="cls-3" d="M113,7.37H141.1a1.08,1.08,0,0,1,1,1.2V32.4c-2.69-3.48-5-6.52-5-6.52H123.68a2,2,0,0,1-1.79-1L113,7.37M150.08,0H110.68c-1.5,0-.91,1.16-.91,1.16L113,7.37h-8.77c-1.5,0-.91,1.16-.91,1.16L115.38,32.2a2,2,0,0,0,1.79,1h13.46s9.43,15.55,10.47,16.6c.35.35.58.46.73.46.31,0,.31-.46.31-.46V32.4c3.39,4.39,7.35,9.49,7.93,10.08.35.35.58.46.73.46.31,0,.31-.46.31-.46V1.2a1.08,1.08,0,0,0-1-1.2"/><path class="cls-2" d="M113,7.37H141.1a1.08,1.08,0,0,1,1,1.2V32.4c-2.69-3.48-5-6.52-5-6.52H123.68a2,2,0,0,1-1.79-1L113,7.37M150.08,0H110.68c-1.5,0-.91,1.16-.91,1.16L113,7.37h-8.77c-1.5,0-.91,1.16-.91,1.16L115.38,32.2a2,2,0,0,0,1.79,1h13.46s9.43,15.55,10.47,16.6c.35.35.58.46.73.46.31,0,.31-.46.31-.46V32.4c3.39,4.39,7.35,9.49,7.93,10.08.35.35.58.46.73.46.31,0,.31-.46.31-.46V1.2a1.08,1.08,0,0,0-1-1.2"/></svg>