<?xml version="1.0" encoding="utf-8"?>
<!-- Generator: Adobe Illustrator 21.1.0, SVG Export Plug-In . SVG Version: 6.00 Build 0)  -->
<svg version="1.1"
	 id="svg2" inkscape:version="0.91 r13725" sodipodi:docname="icon.svg" xmlns:cc="http://creativecommons.org/ns#" xmlns:dc="http://purl.org/dc/elements/1.1/" xmlns:inkscape="http://www.inkscape.org/namespaces/inkscape" xmlns:rdf="http://www.w3.org/1999/02/22-rdf-syntax-ns#" xmlns:sodipodi="http://sodipodi.sourceforge.net/DTD/sodipodi-0.dtd" xmlns:svg="http://www.w3.org/2000/svg"
	 xmlns="http://www.w3.org/2000/svg" xmlns:xlink="http://www.w3.org/1999/xlink" x="0px" y="0px" viewBox="0 0 48 48"
	 style="enable-background:new 0 0 48 48;" xml:space="preserve">
<style type="text/css">
	.st0{fill:none;}
	.st1{fill:#2466A8;}
</style>
<sodipodi:namedview  bordercolor="#666666" borderopacity="1" gridtolerance="10" guidetolerance="10" id="namedview8" inkscape:current-layer="svg2" inkscape:cx="-68.644068" inkscape:cy="24" inkscape:pageopacity="0" inkscape:pageshadow="2" inkscape:window-height="853" inkscape:window-maximized="0" inkscape:window-width="1549" inkscape:window-x="38" inkscape:window-y="213" inkscape:zoom="4.9166667" objecttolerance="10" pagecolor="#ffffff" showgrid="false">
	</sodipodi:namedview>
<path id="path4" class="st0" d="M0,0h48v48H0V0z"/>
<path id="path6" inkscape:connector-curvature="0" class="st1" d="M38.9,6.4H30C29.1,3.8,26.8,2,24,2s-5.1,1.8-6,4.4H9.1
	c-2.3,0-4.3,2-4.3,4.4v30.7c0,2.4,1.9,4.4,4.3,4.4H39c2.3,0,4.3-2,4.3-4.4V10.8C43.2,8.4,41.3,6.4,38.9,6.4z M24,6.4
	c1.2,0,2.1,1,2.1,2.2s-1,2.2-2.1,2.2c-1.2,0-2.1-1-2.1-2.2S22.8,6.4,24,6.4z M19.7,37.1l-8.5-8.8l3-3.1l5.5,5.7l14.1-14.5l3,3.1
	L19.7,37.1z"/>
</svg>
